<svg width="64" height="64" viewBox="0 0 64 64" fill="none" xmlns="http://www.w3.org/2000/svg">
  <path
    d="M31.9996 62.2222C48.6908 62.2222 62.2218 48.6913 62.2218 32C62.2218 15.3087 48.6908 1.77778 31.9996 1.77778C15.3083 1.77778 1.77734 15.3087 1.77734 32C1.77734 48.6913 15.3083 62.2222 31.9996 62.2222Z"
    fill="#0E8345" />
  <path
    d="M31.9992 58.1037C46.4159 58.1037 58.103 46.4167 58.103 32C58.103 17.5833 46.4159 5.89627 31.9992 5.89627C17.5825 5.89627 5.89551 17.5833 5.89551 32C5.89551 46.4167 17.5825 58.1037 31.9992 58.1037Z"
    fill="black" />
  <path
    d="M28.6817 41.5551L20.584 33.4574L23.4988 30.5426L28.6817 35.7256L40.505 23.9023L43.4198 26.8171L28.6817 41.5551Z"
    fill="white" />
</svg>
  